<?xml version="1.0" encoding="utf-8"?>
<!-- Generator: Adobe Illustrator 28.4.1, SVG Export Plug-In . SVG Version: 6.00 Build 0)  -->
<svg version="1.1" id="Layer_1" xmlns="http://www.w3.org/2000/svg" xmlns:xlink="http://www.w3.org/1999/xlink" x="0px" y="0px"
	 viewBox="0 0 100 60" style="enable-background:new 0 0 100 60;" xml:space="preserve">
<style type="text/css">
	.st0{fill-rule:evenodd;clip-rule:evenodd;fill:url(#Shape_00000133506318537606045410000005254098053430206136_);}
	.st1{fill-rule:evenodd;clip-rule:evenodd;}
	.st2{fill-rule:evenodd;clip-rule:evenodd;fill:#B3408E;}
	.st3{fill-rule:evenodd;clip-rule:evenodd;fill:#A174B4;}
	.st4{fill-rule:evenodd;clip-rule:evenodd;fill:#EF5052;}
	.st5{fill-rule:evenodd;clip-rule:evenodd;fill:#C852A9;}
	.st6{fill-rule:evenodd;clip-rule:evenodd;fill:#FADBC8;}
	.st7{fill-rule:evenodd;clip-rule:evenodd;fill:#3F124A;}
	.st8{fill-rule:evenodd;clip-rule:evenodd;fill:#E38B6A;}
	.st9{fill-rule:evenodd;clip-rule:evenodd;fill:#FFFFFF;}
</style>
<g id="logo">
	<g id="Group">
		
			<linearGradient id="Shape_00000177484198439054377500000004540631760725592496_" gradientUnits="userSpaceOnUse" x1="-625.1451" y1="409.062" x2="-625.1451" y2="408.062" gradientTransform="matrix(99.4502 0 0 -59.4479 62220.8203 24318.1406)">
			<stop  offset="0" style="stop-color:#FA93D0"/>
			<stop  offset="1" style="stop-color:#F25AA3"/>
		</linearGradient>
		
			<path id="Shape" style="fill-rule:evenodd;clip-rule:evenodd;fill:url(#Shape_00000177484198439054377500000004540631760725592496_);" d="
			M28.8,4.7c0.1,0,0.3,0,0.4,0l1,0.2C30.6,5,30.9,5.1,31,5.3c0.1,0.1,0.1,0.3,0,0.4l-0.2,0.7c-0.2,0.6-0.4,1.5-0.6,3.1
			c1.1-1.2,2.6-1.9,4.2-1.9c2.6,0,4.4,2,4.8,5.3c0.5,3.8-2.6,15.3-6.1,18.4c-1.1,1-2.4,1.5-3.7,1.5c-0.5,0-0.9-0.1-1.2-0.1L28,32.6
			c-0.1,0.3-0.2,1.1-0.3,2.5l-0.4,3.4l-0.4,4c-0.2,1.8-0.3,3.3-0.4,4.6l-0.3,3.3l-0.1,1c-0.1,1.1-0.2,1.4-0.6,1.4l-0.1,0
			c-0.4,0-0.5-0.3-0.6-0.6l0-0.3c-0.3,0.5-0.8,1.7-1.2,3.8c-0.3,1.1-0.2,1.9-0.1,2.6l0.1,0.5c0,0.3,0,0.5-0.1,0.7
			c-0.1,0.1-0.2,0.1-0.3,0.2l-0.1,0l0,0c-0.9,0-1.6-1.4-2.5-4.9C19.7,52.2,20.1,48,21,41l1-7.3c0.2-1.5,0.4-3,0.6-4.4l0.9-6.9
			c0.4-3.1,0.7-5.5,1.2-7.4l0.1-0.4c0.4-1.6,0.5-2.9,0.6-4.1l0.1-1.1c0.1-1.4,0.3-2.4,0.9-2.9c0.2-0.2,0.3-0.4,0.5-0.5l0.5-0.6
			C27.7,5.1,28.1,4.7,28.8,4.7z M16.4,8.8c1.8,0,2.7,0.7,3.7,1.7l0.4,0.4c1.7,1.5,2.6,2.9,2.7,6c0.1,2.4-0.7,3.5-1,3.8
			c-0.3,0.3-0.6,0.4-0.9,0.4c-0.2,0-0.3-0.1-0.5-0.2c-0.3-0.2-0.4-0.7-0.4-1.3l0-1.1c0-0.9-0.1-1.8-0.5-2.2L19.5,16
			c-0.5-0.4-1-0.7-2-0.7c-1.1,0-2.7,0.4-4.7,1.3L12,16.9c-2.5,1.1-3.8,2-4,2.8c-0.1,0.4,0,0.8,0.3,1.3c0.3,0.5,1.3,1,2.6,1.5
			l1.6,0.6c2.7,1.1,6,2.7,7.5,5.8c2.5,5.3,0.5,11-5.1,14.4c-1.6,1-3.8,1.5-6.1,1.5c-4.2,0-6.2-1.8-7.1-2.9c-1.4-1.8-1.7-3.8-0.9-5.8
			C1.5,34,3.5,32.3,5.6,32c0.5-0.1,1-0.1,1.4-0.1c1.8,0,2.1,0.7,2.2,1c0.1,0.6-0.4,1.2-1.3,1.6l-0.2,0.1c-1.5,0.5-2.6,2-2.8,3.1
			c-0.1,0.3-0.1,0.7,0.2,1c0.7,0.6,1.5,0.9,2.4,0.9c1.2,0,2.7-0.5,4.5-1.6c3.8-2.3,3.6-5.4,2.9-7.6c-0.5-1.4-2.5-2.5-4.6-3.5l-2.2-1
			c-1.5-0.7-2.8-1.4-3.8-2.1c-1.8-1.5-2.8-4.8-2.3-7.4c0.4-1.9,1.6-3.3,3.3-3.8c1.7-0.5,2.7-1,3.7-1.5l0.9-0.5l0.4-0.2
			c1.1-0.6,2.3-1,4.5-1.4C15.5,8.8,16,8.8,16.4,8.8z M33.7,12.6c-0.8,0-1.8,0.8-2.8,2.3c-1.6,2.5-2.7,12.7-2.9,14.5l0.3,0
			c0.9,0,2.7-0.3,4.1-2.5c1.9-3,3.1-12.5,2.4-13.7C34.5,12.8,34.1,12.6,33.7,12.6z M81.9,6.4c-0.6,0-1.4,0.5-2.1,1.4
			c-1.3,1.6-2,3.4-2.3,4.2l0.3-0.1c1.2-0.5,3.5-1.7,4.6-4c0.2-0.5,0.3-0.9,0.1-1.2c-0.1-0.2-0.3-0.3-0.5-0.3L81.9,6.4z M47.5,10.6
			l-0.1,0.6c-0.1,0.9-0.2,2-0.5,2.9c-0.9,2.9-1.5,5.2-1.2,7.5c0.2,1.4,1,2.4,2,2.4c0.6,0,1.3-0.4,1.8-1.3c0.7-1.1,1.3-3.1,1.5-5.3
			c0.2-2,0-3.9-0.4-4.5c-0.4-0.6-1-1-1.5-1.4l-0.5-0.3C48.2,11,47.8,10.8,47.5,10.6z M86,35.6c-0.1,0-0.3,0-0.4,0
			c-1-0.3-2.9-1.7-3.6-5.3c-0.7-3.5,4-7.8,5.4-8.8c0.3-0.2,0.7-0.3,1.1-0.3c0.6,0,1.1,0.3,1.3,0.7c0.1,0.2,0.2,0.7-0.2,1.3l-0.3,0.3
			l-0.7,0.9c-1,1.2-2.4,3-1.8,3.7c0.1,0.1,0.2,0.2,0.3,0.2c1,0,2.8-2.2,3.7-3.9l0.1-0.2c0.3-0.7,1-2.1,0.5-3.2
			c-0.3-0.6-0.9-1-1.8-1.2l-0.5-0.1c-0.5-0.1-0.8-0.1-1.1-0.1c-0.5,0-0.9,0.1-1.3,0.4l-1,0.6c-0.3,0.2-0.7,0.4-1.2,0.7l-0.6,0.3
			c-2.2,1.1-4.9,2.4-7.5,2.4c-0.9,0-1.8-0.2-2.7-0.5c-1.7-0.7-2.6-2.4-2.8-5c-0.1-2,0.2-4.6,0.9-7.5C70.9,9,69.8,8,68.8,8
			c-0.9,0-2.1,0.8-3.4,4.5c-1.8,5.3-2.9,10.9-3.4,13.8l-0.2,1.2c-0.3,2-2,3.8-3.5,3.8c-0.2,0-0.5,0-0.7-0.1
			c-1.8-0.7-2.1-2.2-2.1-5.1l0-0.6l0-1.8c0-2.2,0.1-4.9,1-10.7c-0.9,1.3-1.7,1.7-2.2,1.9l0,0.2c0.2,1,0.3,3.4-0.9,6.9
			c-1.6,4.6-5.5,6.3-7.7,6.3c-0.2,0-0.4,0-0.5,0c-2.4-0.3-5.9-3.1-5.8-9.5C39.5,12.5,42.7,6,45,5.6l0.4-0.1c0.5-0.1,0.7-0.2,0.9-0.3
			l0.1-0.1c0.2-0.1,0.3-0.2,0.8-0.3l0.2,0c0.1,0,0.2,0,0.2,0c0.9,0,1.8,0.3,3.4,1.8c1.5,1.4,2.2,3.7,2.5,4.4l0.1,0
			c0.4-0.2,1.2-0.6,2.3-2.1c1.1-1.3,1.8-3.3,2.3-5l0.3-1.1c0.2-0.7,0.4-1.3,0.7-1.7c0.3-0.5,0.8-0.7,1.4-0.7c0.8,0,1.6,0.4,2.1,1
			c0.3,0.4,0.7,1,0.5,2l-0.1,0.7c-0.2,1.5-0.6,4-0.8,6.1c0.3-0.9,0.7-2,1.2-3.2c1.3-3,3.5-5.2,5.3-5.2c0.5,0,0.9,0.2,1.3,0.5
			l0.4,0.3c0.5,0.4,0.8,0.5,1,0.7l0.2,0.1c0.2,0.1,0.4,0.3,0.7,0.6c0.9,1,1.2,2.4,1.2,3.5L73.9,7c0.7-1.4,1.9-3.4,4-5
			c1-0.8,2.1-1.2,3.3-1.2c1.6,0,3.2,0.7,4.3,1.8c0.8,0.9,1.3,1.9,1.2,2.9c-0.1,3.1-5.1,8.2-9.1,10.5c0,0.6,0.2,1,0.5,1.3
			c0.5,0.5,1.2,0.7,2.2,0.7c0.6,0,1.3-0.1,2.1-0.3c4.5-1,5.9-2.1,6.3-2.9c0.2-0.4-0.2-1.1-0.6-1.9l-0.7-1.2c-0.6-0.9-1.1-2-1.3-3
			c-0.4-2.8,6.4-6.8,8.8-8c0.8-0.4,1.5-0.6,2.2-0.6c0.9,0,1.6,0.3,2.1,1c0.5,0.7,0.9,2.1-0.1,4.8c-1.2,3.1-2.4,4.7-3.6,4.7
			c-0.3,0-0.7-0.1-0.9-0.4C94.1,10,94,9.2,94,8.3L94,7c0-0.6-0.1-1.2-0.2-1.3l0,0c0,0,0,0-0.1,0c-0.9,0-3.3,1.5-3.5,3.1
			c-0.1,1.1,1.6,3.1,3.2,4.7l1.6,1.6c0.5,0.6,1,1,1.2,1.4l0.1,0.2c0.4,0.7,0.9,1.9,0.7,4c-0.2,2.3-1.2,4.9-2.9,7.7
			c-1.6,2.6-3.2,4.5-4.8,5.8c-1.5,1.2-2.6,1.5-3.1,1.5L86,35.6z"/>
		<path id="Shape_00000086653915374468593980000001971587199964794270_" class="st1" d="M97.1,0c1,0,1.8,0.4,2.3,1.1
			c0.5,0.8,0.9,2.3-0.1,5c-1.2,3.2-2.5,4.8-3.9,4.8c-0.4,0-0.8-0.1-1.1-0.4c-0.5-0.4-0.6-1.3-0.6-2.7l0-0.7c0-0.5,0-1-0.1-1.2
			c-0.8,0.1-3,1.4-3.2,2.9c-0.1,1,1.9,3.2,3.4,4.7l1.3,1.4c0.5,0.6,1,1,1.2,1.4c0.4,0.6,1.1,2,0.8,4.4c-0.2,2.3-1.2,4.9-3,7.8
			C92.7,31,91,33,89.4,34.3c-1.2,1-2.5,1.6-3.4,1.6c-0.2,0-0.3,0-0.4-0.1c-0.7-0.2-1.5-0.8-2.1-1.5c-0.8-1-1.4-2.3-1.7-3.9
			c-0.8-3.9,4.5-8.4,5.5-9.1c0.4-0.3,0.8-0.4,1.3-0.4c0.7,0,1.3,0.3,1.6,0.9c0.2,0.5,0.1,1.1-0.3,1.6l-0.3,0.3l-0.3,0.4
			c-0.6,0.7-1.3,1.6-1.8,2.4c-0.4,0.7-0.6,1.2-0.4,1.4C87,28,87,28,87.1,28c0.8,0,2.5-2,3.5-3.7c0.5-1,1-2.3,0.6-3.2
			c-0.2-0.5-0.8-0.9-1.6-1L89,20c-0.5-0.1-0.8-0.1-1.1-0.1c-0.5,0-0.8,0.1-1.2,0.4l-1,0.6c-0.3,0.2-0.7,0.4-1.2,0.7l-1.4,0.7
			c-2,1-4.5,2-6.9,2c-1,0-1.9-0.2-2.8-0.5c-1.8-0.7-2.8-2.5-3-5.2c-0.1-2,0.2-4.6,0.9-7.5c-0.8-1.6-1.8-2.6-2.7-2.6
			c-0.6,0-1.9,0.6-3.1,4.3c-1.5,4.6-2.6,9.5-3.1,12.5l-0.4,2.5c-0.3,1.9-1.9,4-3.7,4c-0.3,0-0.5-0.1-0.8-0.1
			c-1.9-0.8-2.3-2.4-2.3-5.4l0-0.6l0-1.4c0-0.1,0-0.3,0-0.5l0-0.9c0-1.9,0.2-4.4,0.8-8.7c-0.6,0.6-1.1,0.9-1.5,1l0,0.3
			c0.1,1.2,0.2,3.5-0.9,6.7c-0.9,2.6-2.4,4.1-3.6,4.9c-1.4,1-3,1.6-4.4,1.6c-0.2,0-0.4,0-0.6,0c-2.5-0.3-6.2-3.2-6.1-9.8
			c0-0.6,0-1.1,0.1-1.7c-0.3,1.7-0.7,3.6-1.4,5.6c-1.7,5.5-3.5,7.8-4.3,8.7l-0.1,0.1c0,0-0.1,0.1-0.1,0.1c-1.2,1-2.5,1.6-3.9,1.6
			c-0.5,0-0.9-0.1-1.2-0.1l0,0.3c0,0.2-0.1,0.5-0.1,0.8l-0.6,5.8l-0.2,1.5c-0.2,1.9-0.4,3.5-0.5,4.9L26.4,51c0,0.4-0.1,0.7-0.1,0.9
			l0,0.2c-0.1,0.4-0.2,1-0.7,1l-0.1,0c-0.3,0-0.5-0.2-0.7-0.4l-0.2,0.4c-0.2,0.6-0.5,1.5-0.8,2.6c-0.2,0.9-0.2,1.7-0.1,2.2l0,0.4
			c0.1,0.5,0.1,0.9-0.2,1.2C23.5,59.9,23.3,60,23,60l-0.1,0c-1.1-0.1-1.8-1.4-2.8-5.1c-0.7-2.8-0.3-7.2,0.7-14.5l0.9-6.7
			c0.2-1.9,0.5-3.6,0.7-5.2l0.7-5.5c0.4-3.4,0.8-6,1.2-8l0.1-0.4c0.4-1.5,0.5-2.9,0.6-4.1l0.1-1.1c0.1-1.4,0.3-2.4,1-3
			c0.2-0.2,0.3-0.3,0.5-0.5L27,5.4c0.4-0.5,0.9-1,1.8-1l0.1,0l0.1,0l1.2,0.2c0.5,0.1,0.8,0.2,1,0.5c0.2,0.3,0.1,0.5,0,0.8l-0.2,0.6
			C31,7,30.8,7.7,30.6,8.8c1.1-0.9,2.4-1.4,3.8-1.4c2.7,0,4.6,2.1,5.1,5.5c0.1,0.6,0.1,1.4,0,2.3l0,0.4l0.1-0.6
			c0.3-1.7,0.9-3.5,1.6-5.1c1.2-2.6,2.6-4.3,3.8-4.5l0.4-0.1C45.8,5.1,46,5,46.1,5l0.1,0c0.3-0.2,0.5-0.3,1.2-0.3l0.2,0
			c1,0,1.9,0.3,3.6,1.8c1.4,1.3,2.1,3.3,2.4,4.2l0.2-0.1c0.4-0.2,1-0.8,1.9-1.8c1-1.3,1.7-3.2,2.3-4.9l0.4-1.1
			c0.2-0.7,0.5-1.3,0.7-1.7c0.3-0.5,0.9-0.9,1.6-0.9c0.9,0,1.7,0.4,2.3,1.1c0.5,0.6,0.7,1.4,0.6,2.2l-0.2,0.9
			c-0.1,0.5-0.1,1-0.2,1.6l-0.2,1.8L63,7.4l0.2-0.5c1.3-3.1,3.6-5.3,5.6-5.3c0.6,0,1.1,0.2,1.5,0.5c0.5,0.4,0.9,0.7,1.1,0.8l0.5,0.3
			c0.2,0.1,0.4,0.3,0.8,0.6c0.7,0.8,1,1.8,1.2,2.7c0.7-1.4,2-3.2,3.9-4.7c1-0.8,2.2-1.2,3.5-1.2c1.6,0,3.3,0.7,4.5,1.9
			c0.9,0.9,1.3,2,1.3,3.1c0,0.2,0,0.5-0.1,0.7c0.5-0.7,1.3-1.4,2.2-2.1c1.9-1.5,4.2-2.9,5.7-3.6C95.6,0.2,96.4,0,97.1,0z M28.8,5
			c-1,0-1.4,1-2.3,1.9c-1,0.9-0.6,3.7-1.4,7.5l-0.2,1.1c-0.8,3.8-1.4,9.6-2.5,18l-1,7.2c-1,7.2-1.4,11.4-0.7,14.2l0.2,0.7
			c0.7,2.8,1.4,3.9,2.1,4l0,0c0.7,0-0.2-1.3,0.4-3.7c0.6-2.4,1.3-4.2,1.6-4.2l0,0c0.3,0.1,0.1,1,0.5,1l0,0c0.5-0.1,0.3-3.1,1.2-10.8
			l0.5-4.6c0.4-4.1,0.5-4.8,0.8-4.8l0,0l0.3,0.1c0.3,0.1,0.7,0.1,1.2,0.1c0.9,0,2.2-0.3,3.5-1.4c3.3-3,6.5-14.3,6-18.2
			c-0.5-3.6-2.5-5-4.5-5c-1.8,0-3.7,1.1-4.6,2.7l0.1-0.7C30.5,6,31,5.7,30.8,5.5c-0.2-0.2-0.9-0.3-1.7-0.4C29,5,28.9,5,28.8,5z
			 M16.4,8.5c1.9,0,2.8,0.8,3.9,1.8l0.4,0.4c1.7,1.6,2.7,3,2.8,6.2c0.1,1.8-0.3,3.2-1.1,4c-0.3,0.3-0.7,0.5-1.1,0.5
			c-0.2,0-0.4-0.1-0.6-0.2c-0.4-0.3-0.5-0.9-0.5-1.7l0-0.9c0-0.8-0.1-1.7-0.4-2l-0.5-0.4c-0.5-0.4-0.9-0.6-1.8-0.6
			c-1,0-2.4,0.4-4.2,1.1l-0.4,0.2C10,18,8.5,19,8.2,19.8c-0.1,0.3,0,0.6,0.3,1.1c0.3,0.5,1.5,1,2.8,1.5l1.2,0.5
			c2.8,1.2,6.1,2.8,7.7,5.9c1.3,2.7,1.5,5.5,0.5,8.2c-0.9,2.6-2.9,4.9-5.7,6.6c-1.6,1-3.9,1.6-6.2,1.6c-3.2,0-5.8-1.1-7.3-3
			c-1.4-1.9-1.8-4-1-6.1c0.9-2.2,2.9-3.9,5.1-4.3c0.5-0.1,1-0.1,1.5-0.1c2,0,2.4,0.9,2.5,1.3c0.1,0.6-0.2,1.3-1.4,1.9l-0.2,0.1
			c-1.4,0.5-2.4,1.9-2.6,2.9c0,0.2-0.1,0.5,0.1,0.7C6,39,6.7,39.3,7.6,39.3c1.2,0,2.6-0.5,4.3-1.5c3.6-2.2,3.5-5.1,2.8-7.2
			c-0.5-1.4-2.5-2.4-4.8-3.5L8,26.2c-1.5-0.7-2.9-1.4-3.8-2.2c-1.9-1.6-2.9-4.9-2.4-7.7c0.4-2,1.7-3.5,3.5-4
			c1.5-0.5,2.5-0.9,3.4-1.4l1.3-0.7c1.2-0.6,2.5-1.2,4.9-1.5C15.5,8.5,16,8.5,16.4,8.5z M16.4,9c-0.4,0-0.9,0-1.4,0.1
			c-4.8,0.7-4.9,2.2-9.5,3.6c-4.6,1.4-3.7,8.5-0.9,10.8c2.8,2.3,9.7,3.8,10.7,6.7c1,2.9,0.4,5.9-3,7.9c-1.9,1.1-3.4,1.6-4.6,1.6
			c-1,0-1.9-0.3-2.6-1c-1-0.9,0.3-3.5,2.4-4.5l0.2-0.1c1.9-0.7,1.9-2.2-0.6-2.2c-0.4,0-0.9,0-1.4,0.1c-3.8,0.6-6.9,5.5-3.8,9.5
			c1.6,2,4.2,2.8,6.9,2.8c2.2,0,4.5-0.6,5.9-1.5c5.5-3.3,7.5-8.8,5-14S9.1,22.9,8,21.1L7.9,21c-0.7-1.2-0.6-2.4,4.7-4.6
			c2.3-1,3.8-1.3,4.9-1.3c1,0,1.6,0.3,2.1,0.8l0.5,0.4c1.2,0.9,0.3,4.1,0.9,4.6c0.1,0.1,0.2,0.1,0.3,0.1c0.7,0,1.7-1.3,1.6-4
			c-0.1-3-1-4.3-2.4-5.7l-0.9-0.8C18.8,9.6,18,9,16.4,9z M97.1,0.6c-0.6,0-1.3,0.2-2.1,0.6l-0.5,0.2c-3.2,1.6-8.5,5.2-8.2,7.5
			c0.3,2.4,3.2,5.1,2.6,6.2c-0.6,1.1-2.6,2.2-6.5,3c-0.8,0.2-1.6,0.3-2.2,0.3c-2.2,0-3-1.1-3-2.5c4.1-2.2,9-7.3,9.1-10.3
			c0.1-2.2-2.4-4.4-5.2-4.4c-1.1,0-2.2,0.3-3.2,1.1c-3.6,2.8-4.6,6.7-4.6,6.7l0-0.2c0-0.7,0-3.2-1.2-4.6c-0.7-0.8-0.8-0.4-2.3-1.6
			c-0.3-0.3-0.7-0.4-1.1-0.4c-1.6,0-3.8,1.8-5.1,5l-0.3,0.8c-0.9,2.4-1.4,4.2-1.7,5.1l-0.2,0.8l0.6-5.2l0.3-2
			c0.2-1.3,0.4-2.5,0.5-3.2c0.3-1.6-1.2-2.6-2.3-2.6c-0.5,0-0.9,0.2-1.1,0.6c-0.8,1.3-1.5,5.4-3.3,7.7c-1.7,2.2-2.7,2.2-2.9,2.2
			l-0.1-0.4c-0.3-0.8-1-2.9-2.3-4.1c-1.5-1.4-2.3-1.7-3.1-1.7l-0.4,0c-1.3,0-0.4,0.4-2.4,0.7c-2,0.4-5.2,6.5-5.3,12.8
			c-0.1,6.2,3.3,9,5.6,9.3c0.2,0,0.3,0,0.5,0c2.4,0,6-1.9,7.5-6.1c1.3-3.8,1-6.2,0.8-7L54,14.6l0.1,0c0.4,0,1.8-0.4,3-3.2l-0.3,1.7
			c-0.7,4.8-0.9,7.4-1,9.5l0,1.1l0,2.4c0,3.1,0.5,4.3,1.9,4.9C58,31,58.2,31,58.4,31c1.4,0,2.9-1.8,3.2-3.5l0.3-1.9
			c0.6-3,1.6-8.2,3.3-13.2c1.1-3.4,2.4-4.7,3.6-4.7c1.2,0,2.4,1.3,3.2,3.1c-1.3,5.1-1.8,10.9,1.7,12.3c0.8,0.3,1.7,0.5,2.6,0.5
			c2.7,0,5.5-1.4,7.7-2.5c2.4-1.2,2.7-1.8,3.9-1.8c0.4,0,0.9,0.1,1.7,0.2c2.9,0.5,2.4,3.1,1.5,4.8L91,24.5c-0.8,1.5-2.8,4-4,4
			c-0.2,0-0.4-0.1-0.5-0.2c-1-1.1,1.9-4.1,2.8-5.3c0.7-0.9,0-1.6-0.9-1.6c-0.3,0-0.6,0.1-0.9,0.3c-1.2,0.8-5.9,5.1-5.2,8.5
			c0.7,3.4,2.4,4.8,3.4,5.1c0.1,0,0.2,0,0.3,0l0.2,0c1.3-0.1,4.2-1.7,7.6-7.2c3.8-6.3,3.2-10,2.1-11.6c-1-1.5-6.3-5.9-6-7.9
			c0.2-1.8,2.8-3.4,3.8-3.4c0.1,0,0.2,0,0.2,0c0.6,0.4,0,4.1,0.8,4.8c0.2,0.2,0.5,0.3,0.8,0.3c0.9,0,2.1-1,3.4-4.5
			C100.2,2.3,99.1,0.6,97.1,0.6z M57.3,19.8c0.1,0,0.1,0.1,0.1,0.2c-0.3,2.8-0.3,7.3,0.1,8.7c0.1,0.5,0.4,0.8,0.7,0.9
			c0.4,0.1,0.7-0.1,0.8-0.3c0-0.1,0.1-0.1,0.2,0c0.1,0,0.1,0.1,0,0.2c-0.2,0.2-0.5,0.4-0.9,0.4c-0.1,0-0.1,0-0.2,0
			c-0.3-0.1-0.8-0.3-1-1c-0.4-1.4-0.4-5.9-0.1-8.8C57.2,19.8,57.3,19.8,57.3,19.8z M33.7,12.3c0.5,0,1,0.3,1.3,0.8
			c0.8,1.3-0.3,10.8-2.4,14c-1.5,2.3-3.4,2.6-4.4,2.6l-0.3,0c-0.2,0-0.3,0-0.3,0l0.1-1.3c0.4-3.2,1.4-11.4,2.8-13.6
			C31.9,13.1,32.9,12.3,33.7,12.3z M33.7,12.9L33.7,12.9c-0.5,0.1-1.4,0.4-2.6,2.2c-1.4,2.1-2.5,10.4-2.8,14.1l0.3,0
			c0.9-0.1,2.4-0.5,3.6-2.4c0.8-1.3,1.7-4.2,2.2-7.5c0.5-3.4,0.4-5.6,0.2-5.9C34.3,13.1,34.1,12.9,33.7,12.9z M60.6,26.9
			c0.1,0,0.1,0.1,0.1,0.1l0,0.2c0,0.2-0.1,0.6-0.4,1c0,0-0.1,0.1-0.1,0.1c0,0-0.1,0-0.1,0c-0.1,0-0.1-0.1,0-0.2c0.3-0.6,0.4-1,0.4-1
			C60.4,27,60.5,26.9,60.6,26.9z M47.2,10c0.9,1,2.6,1.3,3.6,2.8s0.5,7.6-1.1,10.2c-0.6,1-1.3,1.4-2,1.4c-1.1,0-2-1.1-2.3-2.7
			c-0.3-2.4,0.3-4.9,1.2-7.6C47.1,12.4,47.2,10,47.2,10z M47.7,11.1c-0.1,0.9-0.3,2.2-0.6,3.1c-0.9,2.8-1.5,5.2-1.1,7.4
			c0.2,1.3,0.9,2.2,1.7,2.2c0.5,0,1.1-0.4,1.6-1.1c0.7-1.1,1.2-3,1.4-5.2c0.2-2.3,0-3.8-0.3-4.3c-0.4-0.7-1.1-1.1-1.7-1.4l-0.2-0.1
			C48.2,11.4,47.9,11.2,47.7,11.1z M95.3,22.2c0.1,0,0.1,0.1,0.1,0.2C95.3,23,95,23.4,95,23.5c0,0-0.1,0.1-0.1,0.1c0,0-0.1,0-0.1,0
			c0,0-0.1-0.1-0.1-0.1l0-0.1c0,0,0.2-0.4,0.4-1.1C95.2,22.2,95.3,22.1,95.3,22.2z M93.9,15.7c1.8,1.5,2.2,2.9,1.8,5.3
			c0,0,0,0.1-0.1,0.1l0,0c0,0,0,0,0,0c-0.1,0-0.1-0.1-0.1-0.2c0.4-2.4,0-3.6-1.7-5.1c-0.1,0-0.1-0.1,0-0.2
			C93.8,15.6,93.9,15.6,93.9,15.7z M85.8,8.7c-1.7,2.8-5,5.8-8,7.5c0,0.4,0.2,0.7,0.4,1c0.4,0.4,1.1,0.6,2,0.6
			c0.6,0,1.3-0.1,2.1-0.3c4.4-1,5.8-2,6.2-2.8l0,0c0-0.1,0-0.2-0.2-0.6c-0.1-0.3-0.3-0.6-0.5-1L87.1,12c-0.6-1-1.1-2-1.3-3.1
			C85.8,8.8,85.8,8.8,85.8,8.7z M6,13.9c0,0.1,0,0.1-0.1,0.2c-0.8,0.2-1.3,0.8-1.3,1.3c0,0.1-0.1,0.1-0.1,0.1
			c-0.1,0-0.1-0.1-0.1-0.1c0-0.7,0.7-1.3,1.5-1.6C5.9,13.8,5.9,13.8,6,13.9z M12.2,11c0,0.1,0,0.2-0.1,0.2c-0.4,0.2-0.8,0.4-1.3,0.7
			l-0.9,0.5c-0.7,0.4-1.4,0.8-2,1l-0.2,0c-0.1,0-0.1,0-0.1-0.1c0-0.1,0-0.1,0.1-0.2c0.5-0.1,1.2-0.5,1.9-0.9l1.4-0.8
			c0.4-0.2,0.7-0.4,1-0.6C12.1,10.9,12.2,11,12.2,11z M32.3,9.6c0,0.1,0,0.2-0.1,0.2c-0.8,0.4-1.6,1.3-2.2,1.9l-0.5,0.7
			c-0.1,0.1-0.2,0.3-0.3,0.3c-0.1,0-0.1,0.1-0.2,0.1c-0.1,0-0.1,0-0.1,0c-0.3-0.2-0.2-1.7-0.1-2.2c0-0.1,0.1-0.1,0.2-0.1
			c0.1,0,0.1,0.1,0.1,0.2c-0.1,0.8-0.1,1.7,0,1.9c0.1-0.1,0.2-0.2,0.3-0.4l0.4-0.6c0.6-0.7,1.4-1.6,2.2-2
			C32.2,9.5,32.3,9.5,32.3,9.6z M81.9,6.1c0.9,0,1.3,0.9,0.8,1.9c-1.6,3.4-5.6,4.4-5.6,4.4l0.1-0.3c0.2-0.8,0.9-2.7,2.4-4.5
			C80.5,6.5,81.3,6.1,81.9,6.1z M81.9,6.6L81.9,6.6c-0.3,0-1,0.2-1.9,1.3c-1,1.3-1.7,2.7-2,3.6c1.2-0.5,3.2-1.7,4.2-3.8
			c0.2-0.4,0.2-0.8,0.1-0.9C82.2,6.7,82.1,6.6,81.9,6.6z M35.1,8.8c0.1,0,0.1,0.1,0,0.2c0,0.1-0.1,0.1-0.2,0c-0.4-0.3-1-0.1-1.3,0
			l-0.1,0c0,0,0,0-0.1,0c-0.1,0-0.1,0-0.1-0.1c0-0.1,0-0.2,0.1-0.2C33.7,8.7,34.6,8.5,35.1,8.8z M80,2.4c0.1,0,0.1,0,0.1,0.1
			c0,0.1,0,0.1-0.1,0.2c-0.5,0.1-1.4,0.6-2.3,1.6c-0.9,0.9-1.5,1.8-1.7,2.3c0,0-0.1,0.1-0.1,0.1c0,0,0,0-0.1,0
			c-0.1,0-0.1-0.1-0.1-0.2C76.2,5.4,78.6,2.6,80,2.4z"/>
	</g>
	<g id="Group-2" transform="translate(64.5968, 18.4544)">
		<path id="Path" class="st2" d="M12.6,8.2l-0.2,0c-0.3,0-0.6,0-0.8,0c0,0,0,0-0.1-0.1l0.1,0.1c-0.2,0-0.5,0-0.7,0l-0.3,0
			c-0.2,0-0.4-0.1-0.7-0.1c0.1-0.3,0.2-0.6,0.3-0.9c0,0,0,0.1,0.1,0.1l0,0L10.2,7c0-0.2,0-0.3,0-0.4c0-0.2,0-0.4-0.1-0.6l0-0.1l0,0
			l0-0.2l0-0.2c-0.1,0-0.3,0-0.4-0.1l-0.4,0l-0.2,0c-0.2,0-0.4,0-0.7-0.1L8,5.3C7.7,6.1,7.2,6.5,6.9,6.9C6.8,7,6.7,7.2,6.7,7.2
			c-0.1,0-0.1,0-0.2,0C6.1,7.4,6.1,7.2,5.9,7c0,0-0.1,0-0.1,0C5.5,7,5,7.5,4.8,7.4C4.7,7.2,4.5,7.1,4.3,7.1l-0.1,0l-0.1,0L4,7.2
			C3.6,7.3,1.9,7.3,0.8,6.7L0.6,6.5L0.6,6.5L0.5,6.4C0.2,6.1,0.3,5.9,0.8,5.6C1.3,5.3,2.5,5,3.9,4.8C4.7,4.7,5.4,4.7,6,4.7
			c0.3,0,0.6,0,0.9,0.1l0.7,0.1c0.2,0,0.3,0,0.5,0c0.1,0,0.2,0,0.3,0l0.2,0c0.4,0,1,0,1.6,0.1c0.9,0.1,1.9,0.4,2.6,0.8L13.1,6
			c1,0.6,1.6,1.2,1.2,1.6c-0.1,0.1-0.2,0.1-0.3,0.2l-0.2,0.1C13.7,7.9,13.6,8,13.5,8C13.2,8.1,12.9,8.2,12.6,8.2z"/>
		<path id="Fill-27" class="st3" d="M10.2,5.8C10.2,5.9,10.2,5.9,10.2,5.8C10.2,5.9,10.2,5.9,10.2,5.8c0,0.2,0,0.3,0,0.4
			c0,0.3,0,0.8,0,0.9c0,0,0,0,0,0C10.1,7.4,10,7.7,9.9,8c0,0.1-0.1,0.2-0.1,0.3C9.4,8.7,9.2,8.4,8.7,8c-0.4-0.3-1-0.4-1.4-0.5
			c-0.1,0-0.2,0-0.3-0.1c-0.2,0-0.3-0.1-0.3-0.2c0-0.1,0.1-0.2,0.2-0.4C7.2,6.5,7.7,6.1,8,5.3c0,0,0.1,0,0.1,0c0.4,0,0.7,0,1,0.1
			c0.1,0,0.2,0,0.3,0c0.2,0,0.4,0.1,0.6,0.1c0,0,0,0.1,0,0.2C10.1,5.7,10.1,5.8,10.2,5.8C10.1,5.8,10.2,5.8,10.2,5.8z"/>
		<path id="Fill-37" class="st4" d="M10.3,4.5c-0.1,0-0.3-0.1-0.4-0.1C9.1,4,8.8,3.3,8.8,3.3c0,0,0,0,0,0c0.9,0.2,1.3,0.4,1.7,0.8
			C10.7,4.4,10.6,4.5,10.3,4.5 M8.2,2.7C6.8,2.3,6.8,1.9,6.8,1.9C6.9,1.8,7,1.8,7.2,1.7c0.2-0.1,0.4-0.1,0.6-0.1c1,0,2,0.7,1.8,1
			C9.5,2.8,9.3,2.9,8.9,2.8C8.7,2.8,8.4,2.8,8.2,2.7 M13,2.7L13,2.7c-0.1-0.1-0.1-0.1-0.2-0.2c-0.2-0.2-0.3-0.4-0.4-0.5
			c-0.6-0.8-0.8-1.3-1.6-1.6c0.5,0.5-0.3,0.7-0.7,0.6C9.8,1.1,9.6,1.1,8.9,1C8.3,0.8,8,0.5,8.4,0.2C7.6,0.5,6.9,1.1,6,1.6
			C5.5,2,4.9,2.3,4.2,2.5c-2.8,1-4.8,2.4-4,3.6c0.1,0.1,0.2,0.2,0.3,0.3C0.2,6.1,0.3,5.9,0.8,5.6C1.3,5.3,2.5,5,3.9,4.8
			C4.7,4.7,5.4,4.7,6,4.7c0.4,0,0.8,0,1.1,0.1c0.4,0,0.7,0.1,1,0.1c0.2,0,0.3,0,0.5,0c0.4,0,1,0,1.6,0.1c0.9,0.1,1.9,0.4,2.6,0.8
			c1.2,0.7,1.9,1.3,1.4,1.8c0.2-0.1,0.3-0.3,0.5-0.6C15.5,5.6,14.2,4.1,13,2.7"/>
		<path id="Fill-41" class="st5" d="M10.5,4.1c0.3,0.3,0.1,0.4-0.2,0.4c-0.1,0-0.3-0.1-0.4-0.1C9.1,4,8.8,3.3,8.8,3.3c0,0,0,0,0,0
			C9.7,3.5,10.1,3.7,10.5,4.1"/>
		<path id="Fill-43" class="st6" d="M5.7,10.2c0.1-0.1,0.1-0.1,0.1-0.2c0,0,0-0.1,0-0.1c-0.1-0.2,0-0.4,0.4-0.6
			c0.4-0.2,0.4-0.7,0.5-1.1c0.1-0.4,0.5-0.4,0.6-0.7c0.4,0.1,1,0.3,1.4,0.5C8.2,8.4,8.4,8.9,8.4,9.2C8.3,9.5,7.9,9.4,7.9,9.6
			c0,0.1,0,0.3-0.1,0.5c0,0.1-0.1,0.3-0.2,0.4C7.4,10.8,7,11.7,6.8,12l0,0L4,15.1l0.1-3.2c0.3-0.2,1.3-0.9,1.4-1.3
			C5.6,10.4,5.6,10.3,5.7,10.2"/>
		<path id="Shape_00000068665217853694715760000000464082582112016574_" class="st7" d="M2.1,3.4c-0.5,0.3-0.6,0.5-1,0.9
			S0.5,5.5,0.5,5.8L0.4,5.9l0,0.1l0.2-0.2l0.1-0.1C1,5.5,1.7,5.2,2.8,5C2,5.2,0.9,5.8,0.8,6C0.6,6.1,0.8,6.2,0.8,6.2L2,6l0.8-0.3
			l0.8-0.2l0.6-0.1c0.2,0,0.3-0.1,0.4-0.1l0.1,0c0.1,0,0.2,0,0.4,0l0.8,0l1.2,0l0.8,0l0,0L10,5.4l0,0.1l0,0h0.2l1.1,0.3l1.4,0.6
			c0.1,0,0.2,0.1,0.2,0.1c0.3,0.2,0.8,0.7,1.1,0.7c0.2,0.1,0.4-0.1,0.4-0.1l0,0.2l-0.2,0.2l-0.8,0.4l-0.8,0.1l-0.9,0L11.4,8l-0.1,0
			c-0.1,0-0.3-0.1-0.5-0.2c-0.3-0.2-0.6-0.5-0.6-0.6c0,0,0-0.2,0-0.4l0-0.1l0,0.1l0,0.1l0-0.1c0-0.3-0.4-0.2-0.5-0.4
			c-0.1-0.1-0.1-0.1-0.1,0l0,0.2c0,0.2-0.1,0.3-0.1,0.3l0,0c0-0.1,0-0.6,0-0.5l0,0c0,0.1-0.3,0.4-0.3,0.4l0-0.1c0,0,0-0.1,0-0.2
			c0-0.2,0.2-0.5,0.1-0.5C9.1,6,8.8,6.5,8.8,6.6c-0.1,0.1,0-0.4,0-0.5S8.1,5.8,8,6L7.1,7.1C6.8,7.3,7.3,7.5,7.3,7.5l-0.1,0
			c-0.1,0-0.2,0-0.3-0.1c-0.1,0-0.2-0.1-0.2-0.1l-0.4,0L6.1,7.2C6,7.1,5.9,7.1,5.8,7c-0.2-0.1-0.4,0-0.5,0.1
			C5.3,7.1,5.5,6.8,5.8,6.6l0.1,0c0.3-0.1,0.7-0.6,0.7-0.7C6.5,5.9,6.2,6,5.8,6.2c-0.4,0.2-0.7,0.5-1,0.7L4.7,6.9
			c-0.1,0.1,0,0,0.2,0c0.2,0,0.3,0.3,0.3,0.3L5,7.4L4.6,7.2c0,0,0,0-0.1,0c-0.1-0.1-0.3-0.1-0.8,0C4.1,7,5.6,5.8,5.3,5.8
			C5,5.9,4,6.6,3.7,6.9c-0.3,0.3,0,0.3,0,0.3h-1L1.3,6.9L0.7,6.6L0.4,6.3l0-0.1l0,0.2L0.1,6L0,5.8V5.5l0.1-0.4l0.5-0.7l0.2-0.2
			C1,4.1,1.5,3.8,2.1,3.4z M10.5,6.4L10.5,6.4l0.4,0.7l0.4,0.5c0.2,0.2,0.3,0.3,0.3,0.4c0.2,0.2,0.2-0.2,0-0.4
			C11.5,7.4,11.2,7,11.2,7l0.3,0.1c0.3,0.1,0.6,0.2,0.7,0.2c0.1,0,0.1-0.2-0.4-0.4C11.4,6.7,10.9,6.5,10.5,6.4L10.5,6.4z M12.5,7.5
			l-0.6-0.2l0,0c0,0.1,0.2,0.3,0.6,0.4c0.4,0.2,0.6,0,0.6,0L12.5,7.5z M14.6,4.9l0.3,0.6L15,5.9l0,0.5l-0.1,0.3l-0.2,0.4l-0.3,0.4
			l0-0.3L14.3,7l-0.4-0.4l0,0c0-0.1,0.1-0.2,0.3-0.3C14.4,6,14.7,5.4,14.6,4.9z M10.8,6.1l2,1.1c0.1,0,0.2,0.1,0.2,0.1
			c0.2,0.1,0.3-0.2,0-0.4C12.7,6.8,11.4,6.2,10.8,6.1z M7.8,5.7L7.6,5.9l0,0C7.5,6,7.2,6.1,7,6.4C6.7,6.7,6.6,6.9,6.8,7l0,0.1l0,0
			l0.1-0.2C7.1,6.6,7.6,6,7.8,5.7L7.8,5.7L7.8,5.7z M3.5,6.3C2.9,6.6,2.7,6.6,2.3,6.5L1.9,6.6L2,6.8L2.3,7l0.6,0l0.6-0.3
			c0.3-0.1,0.7-0.3,0.8-0.4C4.7,6,4.6,5.9,4.5,5.8C4.5,5.8,4.1,6,3.5,6.3z M7.1,5.8L7.1,5.8C7,5.8,6.5,6.2,6.4,6.5
			c-0.1,0.2,0,0.3,0.2,0.1l0.1-0.1C6.9,6.3,7.1,6,7.1,6C7.2,5.9,7.2,5.8,7.1,5.8L7.1,5.8z M4,5.6c-0.3,0-1.3,0.5-1.7,0.6
			c-0.4,0.2,0,0.2,0.3,0.2l0.9-0.3l0.9-0.4l0,0C4.3,5.6,4.2,5.6,4,5.6z"/>
		<path id="Shape_00000169518613500360607610000006566009699339061905_" class="st3" d="M5,11.6c0.3-0.3,0.4-0.3,0.5-0.2l0,0
			c0.1,0.1,0.1-0.1,0-0.3c0-0.3,0.2-0.6,0.3-0.7l0,0c0.1,0,0.2-0.3,0.2-0.4l0,0C5.9,9.8,6,9.5,6.1,9.4l0,0C5.8,9.5,5.7,9.7,5.7,9.8
			l0,0.1c0,0,0,0.1,0,0.1c0,0,0,0.1,0,0.1l-0.1,0.1c-0.1,0.1-0.1,0.2-0.2,0.4c-0.1,0.4-0.9,0.9-1.3,1.2C4.5,11.8,4.9,11.8,5,11.6z
			 M8.4,9.2C8.4,8.9,8.2,8.4,8.7,8c-0.4-0.3-1-0.4-1.4-0.5C7.2,7.8,6.8,7.8,6.6,8.2C6.5,8.6,6.5,9,6.3,9.2l0.2-0.2
			C6.6,9,6.7,8.9,6.7,8.9c0-0.1,0.1-0.2,0.2-0.3l0-0.1c0-0.2,0.2-0.1,0.3,0c0.1,0.1,0.1,0,0.1-0.1l0,0c0-0.1,0.1-0.1,0.2-0.1
			c0.2,0.1,0.7,0.5,0.7,0.6C8.2,9,8,8.9,8,9c0,0.2-0.3,0.2-0.2,0.4c0.1,0.2,0.1,0.4,0,0.4l-0.1,0C7.4,9.7,7.1,9.5,7.1,9.6l0.1,0.1
			c0.1,0.1,0.3,0.4,0.2,0.5c-0.1,0.2-0.1,0.3,0,0.5l0,0.1c0-0.1,0.1-0.1,0.1-0.2l0.1-0.1c0.1-0.1,0.2-0.3,0.2-0.4
			c0.1-0.2,0.1-0.4,0.1-0.5C7.9,9.4,8.3,9.5,8.4,9.2z"/>
		<path id="Fill-65" class="st3" d="M6.8,12c0.1-0.1,0.1-0.3,0.2-0.5c-0.2,0-0.4-0.1-0.5-0.1c-0.2,0,0,0.1-0.1,0.2
			c-0.1,0.1,0,0.2,0.2,0.2C6.7,11.9,6.7,12,6.8,12L6.8,12L6.8,12z"/>
		<path id="Shape_00000035505189434903381110000015723555988440479873_" class="st8" d="M7.8,1.6c1,0,2,0.7,1.8,1
			C9.5,2.8,9.3,2.9,8.9,2.8c-0.2,0-0.4-0.1-0.7-0.2C6.8,2.3,6.8,1.9,6.8,1.9C6.9,1.8,7,1.8,7.2,1.7C7.4,1.6,7.6,1.6,7.8,1.6z
			 M10.8,0.3c0.5,0.5-0.3,0.7-0.7,0.6C9.8,1.1,9.6,1.1,8.9,1C8.3,0.8,8,0.5,8.4,0.2C8.9,0.1,9.3,0,9.9,0.1
			C10.3,0.2,10.6,0.2,10.8,0.3z M5,3.5c-0.4,0-1.4,0-1.8,0.3c-0.5,0.3,0.2,1,0.4,1c0.2,0,1.2-0.1,1.7-0.1l0.3,0
			c0.3,0,0.6-0.1,0.6-0.3C6.1,4.1,5.8,3.7,5.5,3.6S5,3.5,5,3.5z M14.8,5.2c-0.1-0.1-0.5,0.1-0.5,0.2c0.1,0.2,0.4,0.6,0.3,0.6
			c-0.1,0.1-0.3-0.2-0.3-0.3c0-0.1-0.3,0-0.2,0.2c0.1,0.2,0.2,0.5,0.5,0.5S15,6.3,15,6.3L15,6l-0.1-0.4L14.8,5.2z"/>
		<path id="Shape_00000088107244242286807810000013748005309852947131_" class="st1" d="M8.4,0.2c0.7-0.2,1.4-0.2,2.1,0
			c0.1,0,0.2,0.1,0.3,0.1c0,0,0,0,0,0c0.8,0.3,1.2,1,1.7,1.7c0.8,1.2,2.1,2.3,2.4,3.7c0.2,0.8-0.1,1.5-0.7,1.9l0,0c0,0,0,0,0,0
			C14.1,7.8,14,7.9,13.9,8c0,0,0,0,0,0l-0.2,0.1l-0.2,0.1c-1.1,0.4-2.5,0.2-3.6,0C9.8,8.3,9.7,8.5,9.5,8.6C9.3,8.6,8.9,8.3,8.7,8.1
			c-0.3,0.3-0.2,0.6-0.3,1c0,0.1,0,0.2-0.1,0.3C8.2,9.5,8.2,9.5,8.1,9.6C8,9.6,8,9.7,7.9,9.8l-0.1,0.3c0,0.1-0.1,0.2-0.1,0.3
			c-0.2,0.5-0.5,0.9-0.8,1.4c0,0,0,0.1,0,0.1l-0.2,0.2l-0.1,0.1c0,0,0,0,0,0L4,15.2c0,0-0.1-0.1-0.1-0.1L4.1,12l0,0
			c-0.1,0-0.1-0.2,0-0.2l0.1,0l0-0.2c0-0.1,0.1-0.1,0.1,0l0,0.2c0.3-0.2,0.5-0.4,0.8-0.6c0.2-0.2,0.4-0.4,0.5-0.6l0.1-0.2
			c0-0.1,0.1-0.1,0.1-0.2c0,0,0-0.1,0-0.1c0-0.1,0-0.1,0-0.2c0-0.1-0.1-0.2,0-0.4c0.1-0.3,0.5-0.3,0.7-0.6c0-0.1,0.1-0.2,0.1-0.3
			c0,0,0,0,0,0c0-0.2,0.1-0.4,0.2-0.6C6.8,7.8,7,7.7,7.1,7.6L7,7.5c-0.1,0-0.3-0.1-0.3-0.2c-0.1,0-0.3,0.1-0.4,0
			C6.1,7.3,6,7.2,6,7.2C5.7,7,5.4,7.3,5.2,7.4C4.9,7.5,4.9,7.5,4.7,7.4C4.4,7.2,4.1,7.2,3.8,7.3c-1,0.2-2.3,0-3.1-0.6l-0.1,0
			c0,0,0,0,0,0c-0.1,0-0.1-0.1-0.2-0.1l0,0l0,0C0,6.1-0.2,5.5,0.2,4.9c0.6-1.1,2.1-1.7,3.3-2.2l0.8-0.3c0.5-0.2,1-0.4,1.5-0.7
			c0.6-0.3,1.1-0.7,1.6-1C7.6,0.5,8,0.3,8.4,0.2L8.4,0.2C8.4,0.1,8.4,0.1,8.4,0.2z M7.3,7.6C7.1,7.9,6.8,8,6.7,8.2
			c0,0.1-0.1,0.2-0.1,0.3c0.2,0,0.3,0,0.4,0.1c0,0,0,0.2,0,0.2C6.9,8.8,6.7,8.7,6.5,8.7c0,0.2-0.1,0.3-0.2,0.4
			C6.3,9.3,6.3,9.3,6.2,9.4L6.1,9.4C5.9,9.6,5.8,9.6,5.8,9.9c0.2,0,0.4,0,0.6,0.1c0.1,0,0,0.2,0,0.2c-0.2-0.1-0.4-0.1-0.6-0.1l0,0
			c0.1,0,0.2,0.1,0.2,0.2c0,0,0,0.1,0,0.1c0,0,0,0-0.1,0l0,0c0,0,0,0,0,0c0,0,0,0,0,0c0,0-0.1-0.1-0.2-0.1l-0.1,0.3
			c-0.1,0.3-0.3,0.5-0.6,0.8c-0.3,0.2-0.6,0.4-0.9,0.6l-0.1,3l2.7-3c0.1-0.2,0.3-0.5,0.4-0.7c0.2-0.3,0.5-0.7,0.6-1.1
			C7.6,9.9,7.3,9.7,7,9.7C7,9.6,7,9.5,7,9.5c0.3,0,0.6,0.3,0.8,0.5l0-0.1c0-0.1,0-0.3,0.1-0.4c0.2-0.2,0.4,0,0.4-0.4
			c0.1-0.4,0-0.7,0.2-1L8.5,8C8.1,7.8,7.7,7.7,7.3,7.6z M8,5.3L8,5.3C7.8,5.9,7.5,6.3,7.1,6.7L7,6.9C6.9,7,6.7,7.2,6.9,7.3
			C7,7.4,7.2,7.4,7.3,7.4c0.3,0.1,0.6,0.2,0.9,0.3c0.2,0.1,0.3,0.2,0.5,0.3c0,0,0,0,0,0l0.4,0.3c0.3,0.2,0.5,0,0.7-0.3c0,0,0,0,0,0
			l0.1-0.2c0.3-0.6,0.3-1.2,0.2-1.9c0,0,0,0,0-0.1c0-0.1,0-0.2-0.1-0.2c-0.2,0-0.4-0.1-0.6-0.1C9.4,5.6,9.4,5.8,9.3,6
			c0.1,0.3,0.2,0.7,0.1,1c0,0.1-0.1,0-0.1-0.1c0-0.2,0-0.4-0.1-0.6l0-0.1L9.2,6.5L9.1,6.8c0,0.1-0.1,0-0.1-0.1
			c0.1-0.4,0.2-0.9,0.3-1.3l-0.2,0C9,5.8,8.8,6.2,8.8,6.6c0,0.1-0.1,0.1-0.1,0c0-0.4,0.2-0.8,0.3-1.2C8.7,5.4,8.4,5.4,8,5.3z
			 M10.2,5.9c0.1,0.4,0.3,0.7,0.5,1l0.4,0.5c0.2,0.2,0.3,0.4,0.5,0.6c0,0,0,0,0,0c0.2,0,0.4,0,0.6,0c-0.2-0.1-0.4-0.3-0.5-0.4
			c-0.3-0.3-0.6-0.5-0.8-0.8c0,0,0-0.2,0-0.2c0.2,0.2,0.5,0.4,0.8,0.5l0.2,0c0.1,0,0.5,0.1,0.7,0c-0.2-0.1-0.4-0.3-0.5-0.3l-0.6-0.4
			C11.1,6.3,10.7,6.1,10.2,5.9z M10.3,6.3c0,0.2,0,0.4,0,0.6c0.1,0.3,0.2,0.7,0.4,1l0.1,0.1c0.2,0,0.5,0.1,0.7,0.1
			c-0.2-0.2-0.4-0.5-0.5-0.7l-0.1-0.2C10.6,6.9,10.4,6.6,10.3,6.3z M11.5,7.2c0.1,0.1,0.2,0.2,0.3,0.3L12,7.7
			C12.2,7.9,12.3,8,12.5,8l0.1,0c0,0,0,0,0,0c0.2,0,0.4-0.1,0.6-0.1c-0.4-0.2-0.9-0.4-1.3-0.5C11.8,7.4,11.6,7.3,11.5,7.2z
			 M10.2,7.2c0,0.2-0.1,0.3-0.1,0.5L10,7.8c0,0,0,0.1,0,0.1C10.1,8,10.3,8,10.5,8C10.4,7.8,10.3,7.5,10.2,7.2z M12.8,7.4
			c0,0.1-0.1,0.1-0.2,0.1c0.3,0.1,0.6,0.3,0.9,0.5c0.1,0,0.2-0.1,0.3-0.1c0.1-0.1,0.1-0.2,0-0.3C13.6,7.7,13.2,7.6,12.8,7.4z
			 M6.2,4.8C5.1,4.8,4,4.9,2.9,5.1L2.4,5.2C1.8,5.3-0.1,5.8,0.5,6.3c0,0,0,0,0,0l0.1,0c0.2-0.5,1-0.5,1.4-0.5c0.2,0,0.3-0.1,0.5-0.1
			l0.2-0.1l0.1-0.1c0.8-0.4,1.8-0.4,2.8-0.4l0.3,0c1.2,0,2.5,0,3.7,0.1c0.2,0,0.4,0.1,0.6,0.1c0,0,0,0,0,0c0.9,0.2,1.8,0.5,2.7,1
			L13,6.6c0.4,0.3,1,0.7,0.9,1.2c0.1-0.1,0.2-0.1,0.3-0.2c0.4-0.6-0.8-1.2-1.2-1.5c-0.5-0.4-1.1-0.6-1.8-0.8C10.4,5,9.4,5,8.5,5
			C7.7,5,7,4.8,6.2,4.8z M10.1,5.6l0,0.1c0.4,0.1,0.7,0.3,1.1,0.5l0.7,0.4c0.3,0.2,0.6,0.3,0.9,0.5l0.3,0.2c0.2,0.1,0.5,0.3,0.7,0.1
			c-0.3-0.4-1-0.8-1.2-0.9c-0.6-0.3-1.2-0.6-1.8-0.7C10.5,5.7,10.3,5.6,10.1,5.6z M9.3,1.7C8.2,1.1,7.1,1.3,6,1.7
			C5.6,2,5.2,2.2,4.8,2.4c-0.7,0.3-1.4,0.5-2,0.8c-0.6,0.3-1.2,0.6-1.7,1c-0.4,0.3-0.8,0.7-1,1.1C0,5.6,0.1,5.9,0.3,6.1
			c0-0.2,0.2-0.4,0.5-0.6c0,0,0,0,0,0c0.5-0.3,0.9-0.8,1.4-1.1C2.7,3.9,3.3,3.6,4,3.3C4.6,3,5.2,2.8,5.9,2.9c0.3,0,0.6,0,0.8,0.3
			c0,0,0,0.2-0.1,0.1C6.4,3,5.7,3,5.4,3.1C5,3.1,4.6,3.2,4.2,3.4c0.5-0.1,1.1,0,1.5,0.2c0.3-0.1,0.5,0,0.8,0.1l0.3,0.2
			c0,0,0.1,0,0.1,0l0,0c0.1,0,0.5,0.1,0.3-0.1C7.2,3.8,7,3.8,6.8,3.9c-0.1,0-0.1-0.2,0-0.2c0.2,0,0.9,0.1,0.6,0.4
			C7.3,4.3,7,4.2,6.8,4.1L6.5,3.9C6.3,3.8,6.1,3.7,5.9,3.8C5.9,3.8,6,3.9,6,4C6,4,6,4.2,6,4.1C5.9,4,5.8,3.9,5.7,3.8c0,0,0,0-0.1,0
			C5.1,3.4,4,3.6,3.5,3.7l-0.1,0C2.6,4.2,2,4.7,1.3,5.3l0.2-0.1C3,4.8,4.6,4.5,6.2,4.6c0.5,0,1.1,0.1,1.6,0.1c0.5,0,0.9,0,1.4,0
			c1.3,0,2.7,0.3,3.8,1L13.3,6c0.5,0.3,1.2,0.8,1.1,1.4c0.2-0.2,0.4-0.5,0.5-0.8c0.2-0.9-0.4-1.8-1-2.5c-0.3-0.4-0.6-0.7-0.9-1.1
			c0,1-1.7,0.8-2.3,0.3C10.2,2.7,9.9,2.1,9.3,1.7z M6.8,5.5c-0.5,0.2-1,0.4-1.4,0.8C5.1,6.5,4.8,6.8,4.4,7l0.1,0
			c0.2,0.1,0.3,0.3,0.6,0.2C5.3,7.2,5.4,7,5.6,6.9c0.1,0,0.1,0,0.2,0C6.2,6.5,6.4,6,6.8,5.5z M7.3,5.3C7.3,5.3,7.2,5.4,7.3,5.3
			L7.1,5.4C6.6,5.9,6.4,6.5,5.9,7L6,7l0.1,0.1c0.1,0,0.1,0.1,0.2,0.1c0-0.2,0-0.4,0.1-0.6c0.3-0.5,0.8-0.8,1.1-1.2L7.3,5.3z
			 M7.9,5.3l-0.2,0l0,0C7.6,5.5,7.5,5.7,7.4,5.9L7.3,6C7,6.2,6.3,6.9,6.5,7.2c0,0,0.1,0,0.1,0C6.7,6.9,7,6.7,7.1,6.5
			C7.5,6.2,7.7,5.8,7.9,5.3z M6.8,5.3c-0.3,0-0.6,0-0.9,0c-0.7,0.4-1.4,1-2.2,1.4L3.5,6.8C2.9,7.1,2.2,7.2,1.8,6.7
			c-0.2,0-0.5,0-0.7-0.1c-0.1,0-0.1,0-0.2,0.1C1.4,6.9,1.9,7,2.3,7c0.4,0.1,0.8,0.1,1.3,0.1c0.2,0,0.4-0.1,0.6-0.1
			C4.6,6.8,5,6.4,5.4,6.1C5.8,5.8,6.3,5.5,6.8,5.3z M5.5,5.4L5,5.4c-0.6,0.3-1.3,0.7-2,1C2.7,6.5,2.4,6.6,2,6.7
			c0.5,0.4,1.4,0,1.9-0.3C4.5,6.1,5,5.7,5.5,5.4z M4.5,5.4c-0.7,0.1-1.4,0.2-2,0.5C2.5,5.9,2.4,6,2.4,6l0,0L1.7,6.3
			C1.6,6.4,1.5,6.4,1.4,6.5c0.1,0,0.3,0,0.4,0c0,0,0,0,0,0c0.5,0,1-0.3,1.4-0.5C3.7,5.9,4.1,5.6,4.5,5.4z M1.8,6.1l-0.2,0
			c-0.3,0-0.7,0.1-0.9,0.4C1.1,6.4,1.5,6.3,1.8,6.1z M12.2,4.3L12.2,4.3c0.2,0.1,0.2,0.3,0.1,0.5c-0.1,0.2-0.3,0.1-0.4,0
			c0,0,0-0.2,0-0.2c0.1,0.1,0.2,0.1,0.3,0l0,0l0,0c0-0.1-0.1-0.1-0.1-0.1C12.2,4.5,12.2,4.4,12.2,4.3L12.2,4.3z M8.8,3.2
			c0.5,0.1,1.1,0.3,1.6,0.6l0.1,0.1c0.2,0.2,0.4,0.4,0.2,0.6c-0.3,0.3-1.1-0.2-1.3-0.4C9.1,3.9,8.9,3.6,8.7,3.4
			C8.7,3.3,8.7,3.2,8.8,3.2z M8.9,3.4c0.3,0.5,0.8,0.9,1.4,0.9c0.2,0,0.3,0,0.2-0.2C10.3,4,10.2,3.9,10,3.8C9.7,3.6,9.3,3.5,8.9,3.4
			z M8.2,0.4C7.6,0.7,7.1,1,6.6,1.3C7.9,1,9.2,1.1,10.1,2.2c0.4,0.5,0.7,1,1.3,1.2c0.3,0.1,0.6,0.1,0.9,0.1c0.4,0,0.8-0.2,0.7-0.6
			c-0.1-0.2-0.3-0.3-0.4-0.5c-0.1-0.1-0.1-0.2-0.2-0.2c-0.3-0.3-0.7-0.5-1.1-0.5c-0.1,0-0.3,0-0.4,0.1c-0.3,0.2-0.1,0.6,0,0.8
			c0.2,0.3,0.5,0.4,0.9,0.4c0.2,0,0.4-0.1,0.3-0.3c0-0.1-0.2-0.2-0.3-0.3c-0.1,0,0-0.2,0-0.2c0.3,0.2,0.5,0.6,0.2,0.9
			c-0.3,0.3-0.9-0.1-1.2-0.3c-0.3-0.3-0.4-0.9-0.1-1.2c0.4-0.3,0.9-0.1,1.3,0.2c-0.1-0.2-0.2-0.3-0.4-0.5c-0.2-0.3-0.5-0.5-0.8-0.6
			c0,0.1,0,0.3-0.1,0.4c-0.1,0.1-0.4,0.2-0.6,0.2c-0.2,0-0.4,0-0.6,0.1C9.4,1.2,8.1,0.9,8.2,0.4z M6.7,1.9c0.6-0.7,2.4-0.3,2.9,0.4
			c0.1,0.2,0.1,0.4-0.1,0.5C9.3,3,8.8,3,8.5,2.9L8.2,2.8C7.8,2.7,7,2.5,6.8,2.2c0,0.1,0,0.3,0.1,0.4c0.3,0.3,0.7,0.5,1,0.6
			c0.1,0,0,0.2,0,0.2l-0.1,0C7.3,3.1,6.2,2.5,6.7,1.9z M8.7,1.9C8.3,1.7,7.9,1.7,7.5,1.7c-0.2,0-0.5,0.1-0.6,0.2c0,0,0,0.1-0.1,0.1
			C7,2.2,7.6,2.4,7.7,2.5C8.1,2.6,8.6,2.8,9,2.8l0.1,0c0.2,0,0.5-0.1,0.3-0.4C9.3,2.1,9,2,8.7,1.9z M10.8,0.4
			c-0.5-0.2-1.2-0.3-1.7-0.3c-0.2,0-0.5,0.1-0.7,0.2C8.1,0.6,8.7,0.8,9,0.9l0.1,0C9.3,1,9.6,1,9.8,1c0.1,0,0.2-0.1,0.3-0.1
			c0.1,0,0.2,0,0.2,0C10.6,0.9,11.1,0.8,10.8,0.4z"/>
	</g>
	<g id="Group-3" transform="translate(29.2542, 26.0492)">
		<path id="Combined-Shape" class="st9" d="M10.3,6.6c2.4-0.6,10.8-3,14.1-2c4.5,1.3,4,5.5,3.4,8.2c-1.1,5-5.1,12-10.1,13.5
			c-1.8,0.6-4.8,1.3-7.7,1.9c-0.7,3.1-2.2,3.3-2.7,4c-0.4,0.6,0-2.4,0.2-3.5l-0.2,0c0,0,0,0,0,0.1L7.2,29c-0.3,0.5-0.6,0.9-0.7-0.1
			c-3.8,0.7-6.7,1-5.8,0.4c0.7-0.5,3-1.3,5.9-2.3c0.3-3.2,1-9.7,1.7-13.5c-1.9,0.3-4-1.5-4.3-3C3.7,8.8,7.3,7.4,10.3,6.6z M38.3,0.6
			c0.1,0,0.2,0,0.3,0.1c0.5,0.2,0.5,0.7,0.6,2.1c0,0.5,0.1,1.2,0.1,1.9c0.2,1.9,0.9,6.2,1.6,10c0,0.3,0.1,0.6,0.2,1.1l0.1,0.5
			c0.5,2.7,1.5,7.3,1.5,8c0,0.3-0.1,0.6-0.2,0.7c-0.1,0.1-0.1,0.1-0.2,0.1c0,0.3,0,1,0,2.2c-0.1,1.5-0.3,2.2-0.3,2.2
			c0,0-0.1,0.1-0.1,0.1c0,0,0,0,0,0c-0.1,0-0.1-0.1-0.1-0.1l-0.2-1.3c-0.1,0.1-0.2,0.1-0.3,0.3c-0.3,0.4-0.5,0.7-0.6,0.9l0,0.1
			c0,0,0,0,0,0c0,0-0.1,0.1-0.1,0.1c0,0,0,0,0,0c-0.1,0-0.1-0.1-0.1-0.1l-0.1-1c-0.1,0.5-0.1,1-0.2,1.4c-0.2,0.9-0.9,2.2-0.9,2.3
			c0,0-0.1,0.1-0.1,0.1c0,0,0,0,0,0c-0.1,0-0.1-0.1-0.1-0.2c0,0,0.2-0.7,0.3-1.4c0-0.2,0-0.4,0.1-0.7l0,0.1c0,0.1-0.1,0.1-0.1,0.1
			c-0.1,0-0.1,0-0.1-0.1c0,0-0.3-1.9-0.2-4.7c0.1-2.8-0.2-4.7-0.2-4.7c-0.2,0-0.6,0.2-1.3,0.5c-0.2,0.1-0.5,0.2-0.7,0.3l-0.4,0.2
			c-0.4,0.1-0.6,0.2-0.6,0.2c0,0,0,0-0.1,0c0,0-0.1,0-0.1,0c0,0-0.1-0.1-0.1-0.1l0-0.1c-0.2,0.1-0.7,0.3-1.1,0.4
			c-0.6,0.2-1.2,0.3-1.6,0.4c-0.6,0.1-2.1,0.4-2.2,0.5c-0.2,0.2-2.2,3.4-2.8,4.5c-1.9,2.9-1.9,3.8-3.5,3.8c-0.5,0-2.9,0.8-3.6,0.6
			c-1.4-0.4,4.3-5.8,8.7-14.8c0.5-0.9,1.6-3.1,2.3-4.8c0.1-0.3,0.2-0.6,0.3-0.9l0.2-0.6c0.2-0.5,0.4-1,0.6-1.5L33,8.7
			C34.7,4.5,36.7,0.6,38.3,0.6z M23.1,10.7c-0.4-2.1-6.3-0.3-10.5,1.2c-0.5,3.3-1.6,10-2.2,13.8c1.7-0.6,3.3-1.2,4.8-1.8
			C20.6,21.8,23.7,13.7,23.1,10.7z M36.5,8.3c-0.3,1.1-0.9,3.2-1.5,4.6c-0.4,0.8-2.4,5.2-2.7,5.9c-0.2,0.4-0.4,0.8-0.5,1
			c0,0,0,0,0.1-0.1c0.5-0.4,2.7-0.7,3.7-1.1c1-0.4,2.3-0.6,2.5-0.7c-0.1-0.1-0.5-3-0.8-5C37.2,12.5,36.6,9.7,36.5,8.3z M48.7,14.7
			c-0.4,5.1,1.7,8.8,4.4,8.4c1.6-0.2,3.4-4.5,4.1-9.8c0.2-1.6,0.5-5.2-0.2-5.5c-0.3-0.1-0.6-0.2-0.9-0.1c-0.9,0-2.5-0.4-2.9-1.3
			C53,5.8,52.8,5.5,52.7,5C51.4,6.2,49,9.4,48.7,14.7z M60.7,18.2c-1.5,5.1-5.7,9.4-9.4,9.4c-0.1,0-0.3,0-0.4,0
			c-2.7-0.3-3.3-1.7-4.3-4c-0.3-0.6-0.6-1.3-0.9-2c-1.8-3.6-2.1-10.1,0.6-14.9C48.5,2.7,49.6,1,53.2,1c0.7,0,1.4,0.1,2.3,0.2
			c3.6,0.5,6.3,3.7,6.3,8.5C61.8,10.8,62.1,13.3,60.7,18.2z"/>
		<path id="Combined-Shape_00000150079053045372187930000006013919263790030729_" d="M38.3,0c0.2,0,0.4,0,0.5,0.1
			c0.8,0.3,0.9,0.7,1,2.5c0,0.8,0.1,1.3,0.1,1.9c0.1,1.6,0.5,4.1,1.6,10c0.1,0.3,0.2,0.9,0.3,1.8c0,0.1,0,0.2,0.1,0.3L42,17
			c0.1,0.7,0.3,1.7,0.4,2l0.1,0.5c0.6,2.8,0.8,4.3,0.8,4.8c0,0.5-0.1,0.8-0.3,1.1l-0.1,0.1l0,0c0,0.5,0,1,0,1.7l0,0.3
			c0,1.2-0.2,2-0.4,2.4c-0.1,0.3-0.4,0.4-0.6,0.4c0,0,0,0-0.1,0c-0.3,0-0.5-0.2-0.6-0.5l0,0l0,0c0,0,0,0,0,0l0,0
			c-0.1,0.3-0.4,0.4-0.6,0.4l0,0l0,0.1c-0.2,0.6-0.5,1.3-0.8,1.9l-0.1,0.3c-0.1,0.2-0.4,0.4-0.6,0.4c-0.1,0-0.1,0-0.2,0
			c-0.4-0.1-0.6-0.5-0.4-0.9c0.1-0.3,0.2-0.8,0.3-1.2l0,0l0,0c-0.1-0.1-0.1-0.2-0.2-0.3l0-0.1c0-0.3-0.1-0.7-0.2-1.4
			c-0.1-1.1-0.1-2.2,0-3.5c0.1-1.2,0-2.3-0.1-3.3c0-0.2,0-0.4-0.1-0.6l0,0l-0.1,0c-0.2,0.1-0.4,0.2-0.5,0.2l-0.1,0
			c-0.4,0.2-0.8,0.3-1.2,0.5c-0.2,0.1-0.4,0.2-0.5,0.2c-0.1,0-0.2,0-0.3,0c-0.1,0-0.2,0-0.3-0.1l-0.1,0l-0.1,0
			c-0.1,0-0.3,0.1-0.5,0.1l-0.2,0c-0.7,0.2-1.3,0.3-1.6,0.4c-0.2,0-0.5,0.1-0.8,0.2l-0.3,0.1c-0.3,0.1-0.5,0.1-0.7,0.2
			c0,0-0.1,0-0.1,0l-0.1,0l0,0c-0.1,0.2-0.5,0.9-1.1,1.8l-0.1,0.2l-0.2,0.3c-0.8,1.3-1,1.6-1.2,2l-0.1,0.1c-0.3,0.5-1.7,2.8-2,3.2
			c-0.5,0.6-1.1,0.9-2,0.9l0,0c-0.1,0-0.2,0-1.3,0.3c-0.1,0-0.2,0.1-0.3,0.1c-1,0.2-1.6,0.3-2,0.2c-0.7-0.2-0.7-0.9-0.3-1.7
			c0.2-0.5,0.6-1.1,1.4-2.2c0,0,0.1-0.1,0.2-0.2l0.2-0.2c0.3-0.4,0.6-0.9,0.7-1c0.5-0.6,0.8-1.2,1.2-1.8c1-1.5,1.9-2.9,2.8-4.3
			c0.8-1.3,1.5-2.7,2.2-4.1c0-0.1,1-2,1.3-2.7c0.1-0.3,0.2-0.5,0.4-0.8c0.2-0.5,0.4-0.9,0.6-1.3c0.5-1.3,0.8-1.9,1.1-2.6
			c0-0.1,0-0.1,0.1-0.2l0.2-0.5C34.8,2.8,36.5,0,38.3,0z M24.3,4.6C21,3.7,12.7,6,10.3,6.6c-3,0.8-6.6,2.2-6.2,3.9
			c0.3,1.5,2.4,3.4,4.3,3C7.7,17.3,6.9,23.8,6.6,27c-2.9,1-5.2,1.8-5.9,2.3c-0.9,0.6,2,0.3,5.8-0.4c0.1,1,0.5,0.4,0.8-0.1l0.2,0
			c-0.2,1.1-0.6,4.2-0.2,3.5c0.5-0.7,2-1,2.7-4c3-0.6,5.9-1.4,7.7-1.9c5-1.6,8.9-8.6,10.1-13.5C28.4,10.1,28.9,5.9,24.3,4.6z
			 M38.3,0.6c-1.7,0-3.6,4.1-5.4,8.4l-0.2,0.5c-0.4,0.9-0.8,1.9-1.1,2.8c-0.7,1.7-1.8,3.9-2.3,4.8c-4.3,9-10,14.4-8.7,14.8
			c0.6,0.2,3.1-0.6,3.6-0.6c1.6,0,1.6-0.9,3.5-3.8c0.3-0.4,0.8-1.2,1.3-2l0.2-0.3c0.6-1,1.2-2,1.3-2.1c0.1-0.1,0.5-0.2,1.1-0.3
			l0.3-0.1c0.3-0.1,0.6-0.1,0.8-0.2c0.4-0.1,1-0.2,1.6-0.4c0.4-0.1,1-0.3,1.1-0.4l0,0.1c0,0,0,0.1,0.1,0.1c0,0,0.1,0,0.1,0
			c0,0,0,0,0.1,0c0,0,0.7-0.3,1.6-0.7c0.7-0.3,1.1-0.5,1.3-0.5c0,0,0.4,1.9,0.2,4.7c-0.1,2.8,0.2,4.7,0.2,4.7c0,0.1,0.1,0.1,0.1,0.1
			c0.1,0,0.1,0,0.1-0.1l0-0.1l0,0.2c0,0.2,0,0.3,0,0.4l0,0.1c-0.1,0.6-0.3,1.3-0.3,1.4c0,0.1,0,0.1,0.1,0.2c0,0,0,0,0,0
			c0.1,0,0.1,0,0.1-0.1c0-0.1,0.7-1.4,0.9-2.3c0.1-0.4,0.2-0.9,0.2-1.4l0.1,1c0,0.1,0.1,0.1,0.1,0.1c0,0,0,0,0,0
			c0.1,0,0.1,0,0.1-0.1c0,0,0.2-0.5,0.6-1c0.1-0.2,0.2-0.3,0.3-0.3l0.2,1.3c0,0.1,0.1,0.1,0.1,0.1c0,0,0,0,0,0c0.1,0,0.1,0,0.1-0.1
			c0,0,0.3-0.7,0.3-2.2c0-1.2,0-2,0-2.2c0.1,0,0.1-0.1,0.2-0.1c0.1-0.2,0.2-0.4,0.2-0.7c0-0.5-0.4-2.5-0.8-4.7l-0.1-0.5
			c-0.4-1.9-0.8-3.7-0.9-4.4c-0.7-3.8-1.4-8.1-1.6-10c-0.1-0.8-0.1-1.4-0.1-1.9c-0.1-1.3-0.1-1.9-0.6-2.1
			C38.5,0.6,38.4,0.6,38.3,0.6z M53.2,0.4c0.7,0,1.5,0.1,2.4,0.2c4,0.5,6.8,4.1,6.8,9l0,0.1c0,0.1,0,0.2,0,0.4
			c0,2.6-0.2,4.7-1.2,8.2c-1.5,5.3-6,9.8-9.9,9.8c-0.2,0-0.3,0-0.5,0c-2.3-0.2-3.3-1.1-4.4-3.4c-0.1-0.2-0.2-0.5-0.4-0.9
			c-0.4-0.9-0.6-1.4-0.9-1.9c-2.1-4.1-2-10.8,0.6-15.4C48.5,1.6,49.7,0.4,53.2,0.4z M53.2,1c-3.6,0-4.7,1.7-6.9,5.7
			c-2.7,4.8-2.4,11.3-0.6,14.9c0.4,0.7,0.7,1.4,0.9,2c1,2.2,1.7,3.7,4.3,4c0.1,0,0.3,0,0.4,0c3.6,0,7.9-4.3,9.4-9.4
			c1.4-4.9,1.2-7.3,1.2-8.6c0-4.8-2.7-8-6.3-8.5C54.6,1,53.8,1,53.2,1z M12.6,11.9c4.2-1.5,10-3.3,10.5-1.2c0.6,3-2.5,11.1-7.9,13.2
			c-1.5,0.6-3.2,1.2-4.8,1.8C11,21.9,12.1,15.2,12.6,11.9z M19.3,10.5c-1.7,0.3-3.7,0.9-6.1,1.8l-0.1,0l0,0.1
			c-0.2,1.5-0.6,3.7-1,6.5L12,19.3c0,0.2,0,0.2-0.1,0.5c-0.1,0.6-0.3,1.6-0.4,2.7l-0.1,0.5c-0.1,0.7-0.2,1.3-0.3,1.9l0,0.1l0.3-0.1
			c1.3-0.5,2.4-0.9,3.3-1.2l0.3-0.1c4.5-1.8,8.2-9.1,7.5-12.6C22.4,10.3,21.3,10.1,19.3,10.5z M52.7,5c0.1,0.5,0.3,0.8,0.4,1.3
			c0.3,0.9,1.9,1.4,2.9,1.3c0.4,0,0.6,0,0.9,0.1c0.7,0.3,0.4,3.9,0.2,5.5c-0.7,5.3-2.5,9.5-4.1,9.8c-2.7,0.4-4.8-3.2-4.4-8.4
			C49,9.4,51.4,6.2,52.7,5z M52.5,6.1L52.5,6.1c-1.7,1.9-3,4.9-3.2,8.7c-0.3,4.7,1.5,8.1,3.8,7.8c1.2-0.2,3-4.3,3.6-9.3
			c0.1-1,0.2-2.2,0.2-3.2c0-0.6,0-1.1-0.1-1.4c0-0.2-0.1-0.3-0.1-0.4c0,0,0,0,0,0l0,0c-0.1-0.1-0.3-0.1-0.5-0.1l-0.1,0
			c-1.4,0-3-0.6-3.4-1.7C52.6,6.4,52.5,6.3,52.5,6.1C52.5,6.1,52.5,6.1,52.5,6.1L52.5,6.1z M36.5,8.3c0.1,1.4,0.8,4.2,0.8,4.7
			c0,0.4,0.1,0.8,0.2,1.3l0,0.4l0,0.2l0.1,0.4c0.2,1.4,0.4,2.6,0.5,2.7c-0.1,0.1-1.5,0.4-2.5,0.7c-1,0.4-3.2,0.6-3.7,1.1
			c0,0,0,0-0.1,0.1c0.1-0.3,0.3-0.6,0.5-1l0.1-0.2c0.2-0.5,0.7-1.5,1.2-2.6l0.2-0.5c0.5-1.2,1-2.3,1.2-2.7
			C35.5,11.6,36.1,9.4,36.5,8.3z M10.3,28.8l0.1,0l0,0.2c-0.3,1-0.6,1.7-1.1,2.3l-0.1,0.1c-0.2,0.2-0.4,0.5-0.7,0.7
			c0,0-0.4,0.3-0.5,0.4c-0.1,0.1-0.1,0.1-0.2,0.2c-0.2,0.3-0.6,0.5-0.9,0.2c-0.2-0.2-0.2-0.3-0.3-0.6c0-0.2,0-0.6,0-1.1
			c0-0.3,0.1-0.5,0.1-0.8l0-0.2l0,0c-0.3,0-0.5-0.2-0.6-0.5l-0.2,0c-1.6,0.3-2.9,0.5-3.8,0.6l-0.2,0c-0.6,0.1-1,0.1-1.3,0
			c-0.7-0.2-0.8-0.9-0.2-1.3c0.6-0.5,2.1-1,5.5-2.2l0.2-0.1l0,0c0.3-3.5,1-9,1.6-12.4l0-0.1l-0.1,0c-1.8-0.2-3.6-1.7-4-3.3l0-0.1
			c-0.4-1.9,2.4-3.4,6.7-4.5l0.1,0c0.3-0.1,1.3-0.3,1.6-0.4c0.9-0.2,1.6-0.4,2.4-0.6c1.1-0.3,2.2-0.5,3.3-0.7
			c3.1-0.6,5.5-0.7,6.9-0.3c4.1,1.2,4.8,4.2,3.8,8.9c-1.4,6.1-5.7,12.5-10.4,14c-1.7,0.5-4.4,1.2-7.4,1.9L10.3,28.8z M32.9,18.8
			l0.1,0c0.2,0,0.3-0.1,0.5-0.1l0.2,0c0,0,0,0,0.1,0c0.9-0.2,1.3-0.3,1.6-0.4c0.2-0.1,0.5-0.2,0.8-0.3c0.3-0.1,0.6-0.2,1.1-0.3l0,0
			l0,0c-0.1-0.4-0.2-1-0.3-2l0-0.2L37,14.9c0-0.1,0-0.1,0-0.2l-0.1-0.4c-0.1-0.4-0.1-0.9-0.2-1.3c0-0.1-0.1-0.3-0.1-0.8
			c0-0.1-0.1-0.6-0.1-0.6c-0.1-0.3-0.1-0.5-0.1-0.7l0-0.1l0,0.1c-0.3,0.9-0.6,1.6-0.8,2.2c-0.1,0.4-0.6,1.3-1.2,2.7L34,16.3
			l-0.2,0.4C33.5,17.5,33.1,18.3,32.9,18.8L32.9,18.8z"/>
	</g>
</g>
</svg>
